<svg xmlns="http://www.w3.org/2000/svg" version="1.1" xmlns:xlink="http://www.w3.org/1999/xlink" xmlns:svgjs="http://svgjs.dev/svgjs" width="1000" height="285" viewBox="0 0 1000 285"><g transform="matrix(1,0,0,1,-0.6060606060606233,-0.4589518118860667)"><svg viewBox="0 0 396 113" data-background-color="#102e44" preserveAspectRatio="xMidYMid meet" height="285" width="1000" xmlns="http://www.w3.org/2000/svg" xmlns:xlink="http://www.w3.org/1999/xlink"><defs></defs><g id="tight-bounds" transform="matrix(1,0,0,1,0.2400000000000091,0.18197036751973883)"><svg viewBox="0 0 395.52 112.63605926496054" height="112.63605926496054" width="395.52"><g><svg viewBox="0 0 395.52 112.63605926496054" height="112.63605926496054" width="395.52"><g><svg viewBox="0 0 395.52 112.63605926496054" height="112.63605926496054" width="395.52"><g><svg viewBox="0 0 395.52 112.63605926496054" height="112.63605926496054" width="395.52"><g><svg viewBox="0 0 395.52 112.63605926496054" height="112.63605926496054" width="395.52"><g transform="matrix(1,0,0,1,0,0)"><svg width="395.52" viewBox="2.5 -33 259.8500061035156 70.5" height="112.63605926496054" data-palette-color="#ffffff"><svg></svg><svg></svg><g class="undefined-text-0" data-fill-palette-color="primary" id="text-0"><path d="M22.75-33h12.4l-16.2 21.05-0.5-2.55-7.25 9.9-2.7-8.05zM2.5-33h11.65v33h-11.65zM14.8-16.5l8.55-6.45 12.7 22.95h-13.05zM55.1-33h11.65v19.4c0 4.467-1.333 7.933-4 10.4-2.667 2.467-6.517 3.7-11.55 3.7v0c-3.7 0-6.657-0.65-8.87-1.95-2.22-1.3-3.74-3.083-4.56-5.35-0.813-2.267-1.003-4.833-0.57-7.7v0l11.55-1.95c-0.433 3.133-0.373 5.283 0.18 6.45 0.547 1.167 1.503 1.75 2.87 1.75v0c1.133 0 1.967-0.483 2.5-1.45 0.533-0.967 0.8-2.55 0.8-4.75v0zM87.75-33h11.65v19.4c0 4.467-1.333 7.933-4 10.4-2.667 2.467-6.517 3.7-11.55 3.7v0c-3.7 0-6.66-0.65-8.88-1.95-2.213-1.3-3.73-3.083-4.55-5.35-0.813-2.267-1.003-4.833-0.57-7.7v0l11.55-1.95c-0.433 3.133-0.373 5.283 0.18 6.45 0.547 1.167 1.503 1.75 2.87 1.75v0c1.133 0 1.967-0.483 2.5-1.45 0.533-0.967 0.8-2.55 0.8-4.75v0z" data-fill-palette-color="primary" fill="#ffffff" opacity="1"></path><path d="M22.7 37h-20.2v-33h18.9c4.167 0.033 7.267 0.773 9.3 2.22 2.033 1.453 3.05 3.647 3.05 6.58v0c0 1.967-0.6 3.633-1.8 5-1.2 1.367-3.083 2.233-5.65 2.6v0 0.05c2.867 0.3 4.967 1.15 6.3 2.55 1.333 1.4 2 3.167 2 5.3v0c0 2.9-0.973 5.073-2.92 6.52-1.953 1.453-4.947 2.18-8.98 2.18zM13.65 24.6v4.8h5.95c1.033 0 1.81-0.207 2.33-0.62 0.513-0.42 0.77-1.03 0.77-1.83v0c0-0.767-0.257-1.35-0.77-1.75-0.52-0.4-1.297-0.6-2.33-0.6v0zM13.65 12v4.8h5.2c2 0 3-0.8 3-2.4v0c0-1.6-1-2.4-3-2.4v0zM46.3 37h-11.6l10.7-33h14l10.75 33h-11.9l-4.5-18.95-1.35-5.6h-0.15l-1.3 5.6zM61.9 30.7h-18.85v-7.25h18.85zM86.6 3.5v0c3.167 0 6.01 0.39 8.53 1.17 2.513 0.787 4.737 1.963 6.67 3.53v0l-4.7 7.5c-1.567-1.1-3.207-1.983-4.92-2.65-1.72-0.667-3.58-1-5.58-1v0c-0.867 0-1.557 0.067-2.07 0.2-0.52 0.133-0.887 0.317-1.1 0.55-0.22 0.233-0.33 0.5-0.33 0.8v0c0 0.4 0.31 0.7 0.93 0.9 0.613 0.2 1.387 0.417 2.32 0.65v0l4.55 1.05c3.367 0.767 5.91 1.9 7.63 3.4 1.713 1.5 2.57 3.583 2.57 6.25v0c0 2.667-0.65 4.857-1.95 6.57-1.3 1.72-3.057 2.997-5.27 3.83-2.22 0.833-4.73 1.25-7.53 1.25v0c-2.1 0-4.2-0.193-6.3-0.58-2.1-0.38-4.05-0.947-5.85-1.7-1.8-0.747-3.35-1.653-4.65-2.72v0l4.6-7.65c0.967 0.767 2.133 1.457 3.5 2.07 1.367 0.62 2.783 1.113 4.25 1.48 1.467 0.367 2.833 0.55 4.1 0.55v0c0.8 0 1.433-0.067 1.9-0.2 0.467-0.133 0.793-0.31 0.98-0.53 0.18-0.213 0.27-0.47 0.27-0.77v0c0-0.467-0.19-0.817-0.57-1.05-0.387-0.233-1.08-0.467-2.08-0.7v0l-5-1.1c-1.767-0.4-3.45-0.933-5.05-1.6-1.6-0.667-2.9-1.643-3.9-2.93-1-1.28-1.5-3.02-1.5-5.22v0c0-2.267 0.61-4.25 1.83-5.95 1.213-1.7 2.98-3.027 5.3-3.98 2.313-0.947 5.12-1.42 8.42-1.42zM132.55 37h-28v-33h27.4v8.55h-15.75v4.1h12.7v7.9h-12.7v3.9h16.35zM156.05 37h-20.2v-33h18.9c4.167 0.033 7.267 0.773 9.3 2.22 2.033 1.453 3.05 3.647 3.05 6.58v0c0 1.967-0.6 3.633-1.8 5-1.2 1.367-3.083 2.233-5.65 2.6v0 0.05c2.867 0.3 4.967 1.15 6.3 2.55 1.333 1.4 2 3.167 2 5.3v0c0 2.9-0.973 5.073-2.92 6.52-1.953 1.453-4.947 2.18-8.98 2.18zM147 24.6v4.8h5.95c1.033 0 1.81-0.207 2.33-0.62 0.513-0.42 0.77-1.03 0.77-1.83v0c0-0.767-0.257-1.35-0.77-1.75-0.52-0.4-1.297-0.6-2.33-0.6v0zM147 12v4.8h5.2c2 0 3-0.8 3-2.4v0c0-1.6-1-2.4-3-2.4v0zM179.65 37h-11.6l10.7-33h14l10.75 33h-11.9l-4.5-18.95-1.35-5.6h-0.15l-1.3 5.6zM195.25 30.7h-18.85v-7.25h18.85zM217.15 4v24.45h14.95v8.55h-26.6v-33zM247.4 4v24.45h14.95v8.55h-26.6v-33z" data-fill-palette-color="primary" fill="#ffffff" opacity="1"></path></g></svg></g></svg></g></svg></g></svg></g><g></g></svg></g></svg><rect width="395.52" height="112.63605926496054" fill="none" stroke="none" visibility="hidden"></rect></g></svg></g></svg>